<?xml version="1.0" encoding="utf-8"?>
<!-- Generator: Adobe Illustrator 13.0.0, SVG Export Plug-In . SVG Version: 6.00 Build 14948)  -->
<!DOCTYPE svg PUBLIC "-//W3C//DTD SVG 1.1//EN" "http://www.w3.org/Graphics/SVG/1.1/DTD/svg11.dtd">
<svg version="1.1" xmlns="http://www.w3.org/2000/svg" xmlns:xlink="http://www.w3.org/1999/xlink" x="0px" y="0px" width="16px"
	 height="16px" viewBox="0 0 16 16" enable-background="new 0 0 16 16" xml:space="preserve">
<g id="Livello_2">
</g>
<g id="Livello_1">
	<linearGradient id="SVGID_1_" gradientUnits="userSpaceOnUse" x1="16" y1="8.0005" x2="4.882813e-004" y2="8.0005">
		<stop  offset="0" style="stop-color:#DDDDDD"/>
		<stop  offset="1" style="stop-color:#666666"/>
	</linearGradient>
	<path fill="url(#SVGID_1_)" d="M0,1c0-0.552,0.448-1,1-1h14c0.553,0,1,0.448,1,1v14c0,0.553-0.447,1-1,1H1c-0.552,0-1-0.447-1-1V1z
		 M4,1v6h8V1H4z M12,9H4v6h8V9z M1,1v2h2V1H1z M3,4H1v2h2V4z M1,7v2h2V7H1z M3,10H1v2h2V10z M1,13v2h2v-2H1z M15,1h-2v2h2V1z M13,4
		v2h2V4H13z M15,7h-2v2h2V7z M13,10v2h2v-2H13z M15,13h-2v2h2V13z"/>
</g>
</svg>
